<?xml version="1.0" standalone="no"?>
<!DOCTYPE svg PUBLIC "-//W3C//DTD SVG 20010904//EN"
 "http://www.w3.org/TR/2001/REC-SVG-20010904/DTD/svg10.dtd">
<svg version="1.0" xmlns="http://www.w3.org/2000/svg"
 width="2270.000000pt" height="2270.000000pt" viewBox="0 0 2270.000000 2270.000000"
 preserveAspectRatio="xMidYMid meet">
<metadata>
Created by potrace 1.14, written by Peter Selinger 2001-2017
</metadata>
<g transform="translate(0.000000,2270.000000) scale(0.100000,-0.100000)"
fill="#000000" stroke="none">
<path d="M11207 18719 c-354 -41 -645 -176 -878 -408 -255 -256 -412 -607
-449 -1005 -23 -257 34 -685 200 -1501 38 -187 110 -540 160 -785 265 -1296
400 -2203 555 -3720 156 -1533 230 -2720 285 -4555 5 -192 13 -408 16 -480 l6
-130 322 -1 323 -1 7 111 c3 61 6 206 6 321 0 238 15 850 30 1275 57 1531 212
3131 476 4885 107 714 200 1231 438 2430 238 1197 288 1498 316 1886 48 659
-286 1283 -823 1538 -147 70 -328 119 -512 141 -103 11 -377 11 -478 -1z"/>
<path d="M6405 17095 c-290 -54 -555 -199 -803 -439 -259 -250 -405 -495 -468
-786 -28 -129 -26 -381 4 -519 47 -211 130 -400 261 -598 101 -151 193 -256
361 -412 789 -731 1260 -1237 1729 -1861 562 -748 940 -1443 1286 -2365 338
-902 602 -1968 779 -3145 25 -166 110 -804 121 -915 11 -102 -3 -96 153 -64
158 32 418 73 575 90 107 13 107 13 107 40 0 98 -125 1248 -206 1894 -254
2027 -585 3862 -904 5004 -393 1410 -979 2758 -1456 3350 -294 365 -697 633
-1077 716 -104 23 -361 28 -462 10z"/>
<path d="M16115 17103 c-500 -62 -1026 -424 -1370 -943 -503 -759 -1033 -2084
-1380 -3455 -356 -1408 -729 -3835 -965 -6285 -16 -173 -30 -322 -30 -331 0
-13 14 -18 63 -23 95 -11 448 -72 572 -100 61 -13 111 -23 112 -22 2 1 21 145
42 319 109 862 267 1722 447 2426 221 865 496 1606 881 2374 381 763 864 1453
1533 2192 213 235 728 748 1000 997 333 304 477 483 605 750 110 230 140 364
139 613 -1 160 -3 191 -26 275 -52 193 -127 347 -253 522 -83 115 -329 358
-445 440 -178 126 -381 212 -573 243 -83 13 -275 18 -352 8z"/>
<path d="M18560 13356 c-557 -81 -1093 -399 -1675 -997 -724 -744 -1336 -1609
-1825 -2579 -512 -1017 -869 -2093 -1130 -3400 -47 -235 -110 -595 -110 -625
0 -17 29 -31 167 -85 92 -36 255 -109 362 -162 108 -53 197 -96 198 -94 1 1
23 73 48 160 56 195 122 400 213 661 571 1648 1597 2984 2817 3666 284 159
501 249 975 406 402 133 623 219 810 314 528 267 784 590 856 1081 20 134 15
347 -11 476 -116 587 -598 1060 -1192 1168 -121 22 -383 27 -503 10z"/>
<path d="M3935 13354 c-369 -38 -673 -181 -931 -439 -184 -184 -304 -380 -372
-611 -47 -158 -57 -233 -57 -424 2 -606 263 -999 861 -1298 188 -94 348 -154
809 -307 450 -149 569 -196 825 -326 622 -314 1197 -780 1635 -1324 355 -442
692 -972 985 -1550 268 -528 397 -872 526 -1400 26 -110 49 -202 51 -204 1 -2
76 30 166 72 151 71 440 188 532 217 22 7 43 16 48 19 9 9 -83 519 -153 849
-358 1677 -929 3085 -1757 4335 -340 513 -712 968 -1114 1362 -598 586 -1153
921 -1673 1010 -91 15 -309 26 -381 19z"/>
<path d="M18790 8959 c-745 -53 -1525 -535 -2211 -1364 -526 -636 -947 -1488
-1248 -2528 l-61 -208 66 -77 c189 -222 309 -466 353 -719 10 -59 21 -101 25
-93 3 8 24 69 46 135 91 273 227 572 362 800 440 740 1113 1226 1923 1390 240
49 361 58 790 59 373 2 407 3 502 24 271 59 481 170 621 329 146 166 254 355
292 515 42 179 44 482 4 658 -119 522 -487 921 -959 1040 -95 24 -332 55 -379
49 -6 -1 -63 -6 -126 -10z"/>
<path d="M3635 8896 c-232 -38 -398 -110 -581 -252 -253 -196 -453 -546 -510
-892 -26 -162 -16 -400 24 -552 101 -389 349 -681 685 -808 161 -61 239 -72
572 -82 714 -22 1133 -111 1610 -339 405 -194 685 -422 952 -773 262 -347 498
-818 604 -1208 l12 -45 18 108 c33 191 105 372 216 542 61 92 183 243 246 303
l35 34 -28 101 c-226 831 -558 1586 -962 2190 -590 882 -1332 1449 -2130 1627
-167 38 -284 51 -483 55 -138 3 -225 0 -280 -9z"/>
</g>
</svg>
