<?xml version="1.0" standalone="no"?>
<!DOCTYPE svg PUBLIC "-//W3C//DTD SVG 20010904//EN"
 "http://www.w3.org/TR/2001/REC-SVG-20010904/DTD/svg10.dtd">
<svg version="1.0" xmlns="http://www.w3.org/2000/svg"
 width="1000.000000pt" height="1000.000000pt" viewBox="0 0 1000.000000 1000.000000"
 preserveAspectRatio="xMidYMid meet">
<metadata>
Created by potrace 1.14, written by Peter Selinger 2001-2017
</metadata>
<g transform="translate(0.000000,1000.000000) scale(0.100000,-0.100000)"
fill="#000000" stroke="none">
<path d="M2555 9989 c-986 -38 -1498 -170 -1877 -486 -357 -297 -545 -727
-622 -1423 -51 -457 -56 -712 -56 -3080 0 -2367 5 -2621 56 -3080 84 -758 308
-1217 737 -1511 371 -255 855 -362 1797 -399 336 -13 4484 -13 4820 0 1030 40
1527 167 1912 487 357 297 545 727 622 1423 51 457 56 712 56 3080 0 2367 -5
2621 -56 3080 -84 758 -308 1217 -737 1511 -371 255 -855 362 -1797 399 -299
11 -4553 11 -4855 -1z m2621 -2200 c188 -34 340 -181 394 -382 20 -72 22 -97
17 -202 -8 -146 -19 -218 -102 -635 -140 -711 -197 -1071 -259 -1645 -47 -428
-86 -1098 -86 -1477 l0 -118 -109 0 -109 0 -6 103 c-3 56 -10 246 -16 422 -20
601 -77 1288 -156 1875 -36 266 -64 425 -153 870 -97 481 -104 528 -104 655 1
263 155 472 391 529 70 17 217 20 298 5z m-1724 -586 c150 -44 318 -192 426
-375 228 -386 424 -955 551 -1598 92 -465 173 -1010 235 -1585 14 -126 28
-251 31 -277 5 -44 4 -48 -17 -52 -145 -28 -260 -42 -263 -32 -2 6 -13 87 -25
181 -74 586 -213 1114 -401 1525 -191 417 -437 746 -868 1160 -189 182 -251
258 -299 372 -23 56 -26 76 -27 178 0 115 0 117 39 195 76 153 250 294 401
324 60 12 145 6 217 -16z m3433 2 c138 -41 289 -183 363 -343 23 -51 26 -69
26 -167 0 -99 -3 -117 -29 -179 -35 -85 -123 -203 -201 -273 -77 -68 -284
-271 -360 -353 -216 -234 -393 -477 -522 -717 -257 -476 -409 -989 -508 -1709
l-28 -201 -31 8 c-16 4 -74 15 -127 24 l-97 17 4 42 c3 22 14 133 25 246 44
444 123 1023 201 1464 115 655 261 1139 474 1571 108 219 149 280 259 390 111
110 225 174 356 199 39 7 136 -2 195 -19z m-4352 -1331 c381 -83 877 -606
1202 -1269 188 -385 313 -772 404 -1255 l27 -145 -100 -41 c-56 -22 -112 -46
-124 -53 -13 -7 -25 -11 -28 -9 -2 2 -22 69 -45 149 -63 221 -155 419 -311
672 -177 285 -356 484 -572 634 -154 108 -298 177 -526 253 -288 97 -405 162
-486 273 -125 170 -120 419 13 595 130 171 332 243 546 196z m5284 -9 c242
-82 385 -308 352 -557 -22 -164 -116 -284 -295 -375 -54 -28 -185 -80 -290
-116 -191 -65 -321 -124 -431 -194 -305 -192 -583 -518 -779 -913 -76 -153
-121 -268 -187 -470 -28 -85 -51 -156 -52 -157 -1 -2 -51 20 -111 47 -60 27
-115 50 -121 50 -19 0 -16 23 18 198 129 658 322 1157 634 1632 183 279 433
563 615 699 221 165 452 221 647 156z m47 -1567 c197 -65 331 -284 311 -510
-9 -98 -46 -179 -116 -253 -92 -97 -181 -125 -403 -125 -215 0 -368 -31 -519
-106 -246 -122 -428 -330 -539 -617 l-42 -107 -13 50 c-16 63 -51 133 -98 195
-44 57 -44 56 19 242 165 492 389 826 711 1066 227 169 489 232 689 165z
m-5390 -3 c248 -43 452 -165 660 -396 197 -219 393 -600 482 -942 l15 -58 -44
-48 c-53 -59 -102 -150 -120 -222 l-14 -53 -18 54 c-75 226 -244 461 -411 572
-181 120 -367 173 -654 188 -197 10 -259 25 -339 84 -55 40 -88 86 -127 170
-38 84 -45 216 -16 312 55 179 181 306 342 340 76 17 143 17 244 -1z"/>
</g>
</svg>
